<mxfile host="app.diagrams.net" modified="2022-09-01T04:52:13.402Z" agent="5.0 (X11; Linux x86_64) AppleWebKit/537.36 (KHTML, like Gecko) Chrome/103.0.0.0 Safari/537.36" etag="rAjWAzY9VQf2jEOll2ql" version="20.2.7" type="github">
  <diagram id="mMdNbblbACNnaMacxIns">
    <mxGraphModel dx="1349" dy="773" grid="1" gridSize="10" guides="1" tooltips="1" connect="1" arrows="1" fold="1" page="1" pageScale="1" pageWidth="850" pageHeight="1100" math="0" shadow="0">
      <root>
        <mxCell id="0" />
        <mxCell id="1" parent="0" />
      </root>
    </mxGraphModel>
  </diagram>
</mxfile>
